<?xml version="1.0" encoding="UTF-8" standalone="no"?>
<svg
   viewBox="0 0 512 512"
   version="1.1"
   id="svg2"
   sodipodi:docname="arrow-trash-duotone-thin.svg"
   width="512"
   height="512"
   inkscape:version="1.3 (0e150ed6c4, 2023-07-21)"
   xmlns:inkscape="http://www.inkscape.org/namespaces/inkscape"
   xmlns:sodipodi="http://sodipodi.sourceforge.net/DTD/sodipodi-0.dtd"
   xmlns="http://www.w3.org/2000/svg"
   xmlns:svg="http://www.w3.org/2000/svg">
  <defs
     id="defs2" />
  <sodipodi:namedview
     id="namedview2"
     pagecolor="#ffffff"
     bordercolor="#666666"
     borderopacity="1.0"
     inkscape:showpageshadow="2"
     inkscape:pageopacity="0.0"
     inkscape:pagecheckerboard="0"
     inkscape:deskcolor="#d1d1d1"
     inkscape:zoom="1.4804688"
     inkscape:cx="255.32454"
     inkscape:cy="256"
     inkscape:window-width="1600"
     inkscape:window-height="996"
     inkscape:window-x="-8"
     inkscape:window-y="-8"
     inkscape:window-maximized="1"
     inkscape:current-layer="svg2" />
  <!--!Font Awesome Pro 6.7.2 by @fontawesome - https://fontawesome.com License - https://fontawesome.com/license (Commercial License) Copyright 2025 Fonticons, Inc.-->
  <path
     class="fa-secondary"
     opacity="0.4"
     d="m 126.77573,59.25277 v 370.8 c 0,3.3 2.7,6 6,6 1.7,0 3.4,-0.7 4.5,-2.1 l 105.5,-120.4 c 3,-3.5 7.4,-5.5 12,-5.5 h 153.9 c 3.4,0 6.1,-2.7 6.1,-6.1 0,-1.7 -0.7,-3.4 -2,-4.5 l -274,-243.6 c -1.3,-1.2 -3,-1.8 -4.8,-1.8 -4,0 -7.2,3.2 -7.2,7.2 z"
     id="path1"
     style="fill:#999999" />
  <path
     class="fa-primary"
     d="m 254.77573,308.05277 h 153.9 c 3.4,0 6.1,-2.7 6.1,-6.1 0,-1.7 -0.7,-3.4 -2,-4.5 l -274,-243.6 c -1.3,-1.2 -3,-1.8 -4.8,-1.8 -4,0 -7.2,3.2 -7.2,7.2 v 370.8 c 0,3.3 2.7,6 6,6 1.7,0 3.4,-0.7 4.5,-2.1 l 105.5,-120.4 c 3,-3.5 7.4,-5.5 12,-5.5 z m -144,122 v -370.8 c 0,-12.8 10.4,-23.2 23.2,-23.2 5.7,0 11.2,2.1 15.4,5.9 l 274,243.6 c 4.7,4.2 7.4,10.2 7.4,16.5 0,12.2 -9.9,22.1 -22.1,22.1 h -145.1 l 70.4,148.6 c 1.9,4 0.2,8.8 -3.8,10.7 -4,1.9 -8.8,0.2 -10.7,-3.8 l -70.4,-149 -99.7,113.9 c -4.2,4.8 -10.2,7.5 -16.6,7.5 -12.2,0 -22,-9.9 -22,-22 z"
     id="path2" />
  <path
     class="fa-secondary"
     opacity="0.4"
     d="m 296.42862,51.269129 c 1.17606,0 2.15134,0.878101 2.26608,2.003167 l 8.11771,93.298164 c 0.48764,5.70764 5.47874,10.0707 11.44512,10.0707 h 61.87249 c 5.96637,0 10.92879,-4.36306 11.44511,-10.0707 l 8.11773,-93.298164 c 0.086,-1.125066 1.09,-2.003167 2.29475,-2.003167 z m 27.04949,-13.171503 h 51.37396 l -6.59745,-10.070713 c -1.26211,-1.920845 -3.47082,-3.100792 -5.85163,-3.100792 h -26.53318 c -2.3808,0 -4.58951,1.179947 -5.85164,3.100792 z"
     id="path1-1"
     style="fill:#999999;stroke-width:0.280557" />
  <path
     class="fa-primary"
     d="m 335.89851,24.926121 h 26.53316 c 2.38082,0 4.58952,1.179947 5.85163,3.100792 l 6.59745,10.070713 h -51.40264 l 6.59743,-10.070713 c 1.26213,-1.920845 3.47083,-3.100792 5.85165,-3.100792 z m -9.72405,0.768338 -8.08904,12.403167 h -30.86453 c -1.26212,0 -2.29476,0.987863 -2.29476,2.19525 0,1.207389 1.03264,2.19525 2.29476,2.19525 h 123.91709 c 1.26211,0 2.29475,-0.987861 2.29475,-2.19525 0,-1.207387 -1.03264,-2.19525 -2.29475,-2.19525 H 380.27344 L 372.1844,25.694459 c -2.09396,-3.210554 -5.76559,-5.158839 -9.72404,-5.158839 h -26.56185 c -3.95846,0 -7.63008,1.948285 -9.72405,5.158839 z M 298.6947,53.272296 c -0.11473,-1.207388 -1.20475,-2.11293 -2.46688,-2.003167 -1.26211,0.109763 -2.2087,1.152507 -2.09396,2.359895 l 8.11771,93.298156 c 0.68844,7.95778 7.65876,14.10448 16.00596,14.10448 h 61.87249 c 8.34719,0 15.31751,-6.11925 16.00595,-14.10448 l 8.11771,-93.298156 c 0.11472,-1.207388 -0.83185,-2.277572 -2.09397,-2.359895 -1.26212,-0.08232 -2.38081,0.795779 -2.46685,2.003167 l -8.11773,93.298164 c -0.51632,5.70764 -5.50742,10.0707 -11.4738,10.0707 h -61.87248 c -5.96639,0 -10.9288,-4.36306 -11.44512,-10.0707 z"
     id="path2-7"
     style="stroke-width:0.280557" />
</svg>
