<?xml version="1.0" encoding="UTF-8" standalone="no"?>
<svg
   height="20"
   width="12.5"
   viewBox="0 0 320 512"
   version="1.1"
   id="svg2"
   sodipodi:docname="arrow-pointer-sharp-duotone-light.svg"
   inkscape:version="1.3 (0e150ed6c4, 2023-07-21)"
   xmlns:inkscape="http://www.inkscape.org/namespaces/inkscape"
   xmlns:sodipodi="http://sodipodi.sourceforge.net/DTD/sodipodi-0.dtd"
   xmlns="http://www.w3.org/2000/svg"
   xmlns:svg="http://www.w3.org/2000/svg">
  <defs
     id="defs2" />
  <sodipodi:namedview
     id="namedview2"
     pagecolor="#ffffff"
     bordercolor="#666666"
     borderopacity="1.0"
     inkscape:showpageshadow="2"
     inkscape:pageopacity="0.0"
     inkscape:pagecheckerboard="0"
     inkscape:deskcolor="#d1d1d1"
     inkscape:zoom="38.55"
     inkscape:cx="6.2386511"
     inkscape:cy="10"
     inkscape:window-width="1920"
     inkscape:window-height="1009"
     inkscape:window-x="2392"
     inkscape:window-y="-8"
     inkscape:window-maximized="1"
     inkscape:current-layer="svg2" />
  <!--!Font Awesome Pro 6.7.2 by @fontawesome - https://fontawesome.com License - https://fontawesome.com/license (Commercial License) Copyright 2025 Fonticons, Inc.-->
  <path
     class="fa-secondary"
     opacity=".4"
     d="M32 74.1l0 335.5 90.1-109.9 9.6-11.7 15.1 0 135.4 0L32 74.1z"
     id="path1"
     style="fill:#999999" />
  <path
     class="fa-primary"
     d="M161.5 320L288 320l32 0-.1-32 0-10L32 32 0 46.9 0 432l7.2 7.9L29 463.8l20.5-25 84.2-102.6 59.7 134.4 29.2-13L161.5 320zm-39.4-20.3L32 409.6 32 74.1 282.3 288l-135.4 0-15.1 0-9.6 11.7z"
     id="path2" />
</svg>
