<?xml version="1.0" encoding="UTF-8" standalone="no"?>
<svg
   viewBox="0 0 448 512"
   version="1.1"
   id="svg2"
   sodipodi:docname="draw-polygon-sharp-duotone-thin.svg"
   inkscape:version="1.3 (0e150ed6c4, 2023-07-21)"
   xmlns:inkscape="http://www.inkscape.org/namespaces/inkscape"
   xmlns:sodipodi="http://sodipodi.sourceforge.net/DTD/sodipodi-0.dtd"
   xmlns="http://www.w3.org/2000/svg"
   xmlns:svg="http://www.w3.org/2000/svg">
  <defs
     id="defs2" />
  <sodipodi:namedview
     id="namedview2"
     pagecolor="#ffffff"
     bordercolor="#666666"
     borderopacity="1.0"
     inkscape:showpageshadow="2"
     inkscape:pageopacity="0.0"
     inkscape:pagecheckerboard="0"
     inkscape:deskcolor="#d1d1d1"
     inkscape:zoom="1.5058594"
     inkscape:cx="224.12451"
     inkscape:cy="256"
     inkscape:window-width="1920"
     inkscape:window-height="1009"
     inkscape:window-x="2392"
     inkscape:window-y="-8"
     inkscape:window-maximized="1"
     inkscape:current-layer="svg2" />
  <!--!Font Awesome Pro 6.7.2 by @fontawesome - https://fontawesome.com License - https://fontawesome.com/license (Commercial License) Copyright 2025 Fonticons, Inc.-->
  <path
     class="fa-secondary"
     opacity=".4"
     d="M16 80a32 32 0 1 0 64 0A32 32 0 1 0 16 80zm0 352a32 32 0 1 0 64 0 32 32 0 1 0 -64 0zM256 256a32 32 0 1 0 64 0 32 32 0 1 0 -64 0zM368 80a32 32 0 1 0 64 0 32 32 0 1 0 -64 0zm0 352a32 32 0 1 0 64 0 32 32 0 1 0 -64 0z"
     id="path1"
     style="fill:#999999" />
  <path
     class="fa-primary"
     d="M80 80A32 32 0 1 0 16 80a32 32 0 1 0 64 0zM56 127.3l0 257.3C76.1 388 92 403.9 95.3 424l257.3 0c1.8-10.9 7.3-20.5 15.2-27.6l-61.2-96.1c-5.7 2.4-12 3.8-18.7 3.8c-26.5 0-48-21.5-48-48s21.5-48 48-48c6.6 0 12.9 1.3 18.7 3.8l61.2-96.1c-7.9-7.1-13.3-16.7-15.2-27.6L95.3 88C92 108.1 76.1 124 56 127.3zM381.3 387.8c5.7-2.4 12-3.8 18.7-3.8c26.5 0 48 21.5 48 48s-21.5 48-48 48c-23.8 0-43.5-17.3-47.3-40L95.3 440c-3.8 22.7-23.6 40-47.3 40c-26.5 0-48-21.5-48-48c0-23.8 17.3-43.5 40-47.3l0-257.3C17.3 123.5 0 103.8 0 80C0 53.5 21.5 32 48 32c23.8 0 43.5 17.3 47.3 40l257.3 0c3.8-22.7 23.6-40 47.3-40c26.5 0 48 21.5 48 48s-21.5 48-48 48c-6.6 0-12.9-1.3-18.7-3.8l-61.2 96.1c9.7 8.8 15.8 21.5 15.8 35.6s-6.1 26.9-15.8 35.6l61.2 96.1zM432 80a32 32 0 1 0 -64 0 32 32 0 1 0 64 0zM48 464a32 32 0 1 0 0-64 32 32 0 1 0 0 64zm384-32a32 32 0 1 0 -64 0 32 32 0 1 0 64 0zM288 288a32 32 0 1 0 0-64 32 32 0 1 0 0 64z"
     id="path2" />
</svg>
