<?xml version="1.0" encoding="UTF-8" standalone="no"?>
<svg
   viewBox="0 0 576 512"
   version="1.1"
   id="svg2"
   sodipodi:docname="gps-plane-icon.svg"
   inkscape:version="1.3 (0e150ed6c4, 2023-07-21)"
   xmlns:inkscape="http://www.inkscape.org/namespaces/inkscape"
   xmlns:sodipodi="http://sodipodi.sourceforge.net/DTD/sodipodi-0.dtd"
   xmlns="http://www.w3.org/2000/svg"
   xmlns:svg="http://www.w3.org/2000/svg">
  <defs
     id="defs2" />
  <sodipodi:namedview
     id="namedview2"
     pagecolor="#ffffff"
     bordercolor="#666666"
     borderopacity="1.0"
     inkscape:showpageshadow="2"
     inkscape:pageopacity="0.0"
     inkscape:pagecheckerboard="0"
     inkscape:deskcolor="#d1d1d1"
     inkscape:zoom="1.4804688"
     inkscape:cx="288.08443"
     inkscape:cy="255.66227"
     inkscape:window-width="1920"
     inkscape:window-height="1009"
     inkscape:window-x="2392"
     inkscape:window-y="-8"
     inkscape:window-maximized="1"
     inkscape:current-layer="svg2" />
  <!--!Font Awesome Pro 6.7.2 by @fontawesome - https://fontawesome.com License - https://fontawesome.com/license (Commercial License) Copyright 2025 Fonticons, Inc.-->
  <g
     inkscape:groupmode="layer"
     id="layer1"
     inkscape:label="Grid"
     style="display:inline">
    <rect
       style="fill:#b3b3b3;fill-rule:evenodd;stroke-width:0.774597"
       id="rect2-4"
       width="575.49341"
       height="6.0791559"
       x="-0.33509234"
       y="338.47229" />
    <rect
       style="display:inline;fill:#b3b3b3;fill-rule:evenodd;stroke-width:0.774597"
       id="rect2-4-3"
       width="575.49341"
       height="6.0791559"
       x="0.30343008"
       y="170.65172" />
    <rect
       style="display:inline;fill:#b3b3b3;fill-rule:evenodd;stroke-width:0.850803"
       id="rect2-4-3-0"
       width="568.06329"
       height="7.4300795"
       x="4.3773088"
       y="0.53825855" />
    <rect
       style="display:inline;fill:#b3b3b3;fill-rule:evenodd;stroke-width:0.770038"
       id="rect2-4-3-0-1"
       width="568.73877"
       height="6.0791559"
       x="3.105541"
       y="506.67548" />
    <rect
       style="display:inline;fill:#b3b3b3;fill-rule:evenodd;stroke-width:0.730136"
       id="rect2-4-3-8"
       width="511.32455"
       height="6.0791559"
       x="-511.87595"
       y="190.25594"
       transform="rotate(-90)" />
    <rect
       style="display:inline;fill:#b3b3b3;fill-rule:evenodd;stroke-width:0.7311"
       id="rect2-4-3-8-4"
       width="512.67548"
       height="6.0791559"
       x="-511.77307"
       y="0.22163588"
       transform="rotate(-90)" />
    <rect
       style="display:inline;fill:#b3b3b3;fill-rule:evenodd;stroke-width:0.729654"
       id="rect2-4-3-8-4-6"
       width="510.64908"
       height="6.0791559"
       x="-511.30869"
       y="569.57257"
       transform="rotate(-90)" />
    <rect
       style="display:inline;fill:#b3b3b3;fill-rule:evenodd;stroke-width:0.7311"
       id="rect2-4-3-8-9"
       width="512.67548"
       height="6.0791559"
       x="-513.13196"
       y="380.314"
       transform="rotate(-90)" />
  </g>
  <path
     class="fa-secondary"
     opacity="0.4"
     d="m 255.77835,488.3933 32.45192,-11.69374 c 0.87464,-0.30374 1.77941,-0.30374 2.65405,0 l 32.45192,11.69374 V 473.43443 L 305.9642,457.03282 c -1.20638,-1.13901 -1.93021,-2.9614 -1.93021,-4.85974 v -31.24659 c 0,-1.89834 0.72383,-3.72073 1.93021,-4.85974 1.20639,-1.139 2.7747,-1.51865 4.22238,-0.98713 l 46.92859,16.89518 v -21.33728 c 0,-2.1641 -0.93494,-4.17634 -2.44293,-5.27737 l -48.22548,-34.70157 c -1.50799,-1.10102 -2.44293,-3.11326 -2.44293,-5.27737 v -41.64946 c 0,-5.16347 -1.77943,-12.9846 -4.88589,-19.51488 -3.25726,-6.87197 -6.8161,-9.98524 -9.56065,-9.98524 -1.23655,0 -2.71438,0.64542 -4.46364,2.3919 -1.74927,1.74647 -3.46838,4.36617 -5.03669,7.59334 -3.16677,6.56824 -5.00651,14.38938 -5.00651,19.47691 v 41.64946 c 0,2.16411 -0.93497,4.17635 -2.44294,5.27738 l -48.16517,34.73953 c -1.50799,1.06305 -2.44293,3.11327 -2.44293,5.27737 v 21.33728 l 46.9286,-16.89518 c 1.44767,-0.53152 3.01598,-0.15187 4.22237,0.98713 1.20639,1.13901 1.93023,2.9614 1.93023,4.85974 v 31.24659 c 0,1.89834 -0.72384,3.72073 -1.93023,4.85974 l -17.37203,16.40161 z"
     id="path1"
     style="display:inline;opacity:1;fill:#999999;stroke-width:0.338388" />
  <path
     class="fa-primary"
     d="m 279.0617,287.13184 c 2.86517,-2.88544 6.42403,-5.04955 10.49559,-5.04955 8.11298,0 14.20526,8.20081 17.85459,15.87007 3.83029,8.01097 6.27324,17.95826 6.27324,25.77939 v 38.15653 l 45.78252,32.91713 c 4.52397,3.22716 7.29867,9.30185 7.29867,15.83211 v 21.33728 c 0,8.0869 -6.12244,13.89581 -12.30519,11.69375 l -40.776,-14.69311 v 20.1603 l 15.4418,14.57922 c 2.44293,2.27799 3.86043,5.88482 3.86043,9.71947 v 15.94601 c 0,6.30247 -4.04139,11.39001 -9.04792,11.39001 -0.84448,0 -1.68893,-0.15187 -2.47311,-0.4556 l -31.90903,-11.46595 -31.87887,11.46595 c -0.81432,0.30373 -1.6588,0.4556 -2.50326,0.4556 -5.00654,0 -9.04793,-5.08754 -9.04793,-11.39001 v -15.94601 c 0,-3.83465 1.4175,-7.44148 3.86044,-9.71947 l 15.4418,-14.57922 v -20.1603 l -40.776,14.69311 c -6.18276,2.20206 -12.30519,-3.6448 -12.30519,-11.69375 v -21.33728 c 0,-6.53026 2.7747,-12.56698 7.29867,-15.83211 l 45.78252,-32.95509 v -38.15654 c 0,-7.8591 2.53344,-17.80638 6.39389,-25.81735 1.96038,-4.06243 4.37316,-7.89706 7.23834,-10.78254 z m 0.99526,17.08503 c -3.16677,6.56824 -5.00651,14.38938 -5.00651,19.47691 v 41.64946 c 0,2.16411 -0.93497,4.17635 -2.44294,5.27738 l -48.16517,34.73953 -2.38261,-5.27737 2.38261,5.27737 c -1.50799,1.06305 -2.44293,3.11327 -2.44293,5.27737 v 21.33728 l 46.9286,-16.89518 c 1.44767,-0.53152 3.01598,-0.15187 4.22237,0.98713 1.20639,1.13901 1.93023,2.9614 1.93023,4.85974 v 31.24659 c 0,1.89834 -0.72384,3.72073 -1.93023,4.85974 l -17.37203,16.40161 v 14.95887 l 32.45192,-11.69374 c 0.87464,-0.30374 1.77941,-0.30374 2.65405,0 l 32.45192,11.69374 V 473.43443 L 305.9642,457.03282 c -1.20638,-1.13901 -1.93021,-2.9614 -1.93021,-4.85974 v -31.24659 c 0,-1.89834 0.72383,-3.72073 1.93021,-4.85974 1.20639,-1.139 2.7747,-1.51865 4.22238,-0.98713 l 46.92859,16.89518 v -21.33728 c 0,-2.1641 -0.93494,-4.17634 -2.44293,-5.27737 l -48.22548,-34.70157 c -1.50799,-1.10102 -2.44293,-3.11326 -2.44293,-5.27737 v -41.64946 c 0,-5.16347 -1.77943,-12.9846 -4.88589,-19.51488 -3.25726,-6.87197 -6.8161,-9.98524 -9.56065,-9.98524 -1.23655,0 -2.71438,0.64542 -4.46364,2.3919 -1.74927,1.74647 -3.46838,4.36617 -5.03669,7.59334 z"
     id="path2"
     style="display:inline;stroke-width:0.338388" />
</svg>
