<?xml version="1.0" encoding="UTF-8" standalone="no"?>
<svg
   viewBox="0 0 576 512"
   version="1.1"
   id="svg2"
   sodipodi:docname="gps-plane-icon.svg"
   inkscape:version="1.3 (0e150ed6c4, 2023-07-21)"
   xmlns:inkscape="http://www.inkscape.org/namespaces/inkscape"
   xmlns:sodipodi="http://sodipodi.sourceforge.net/DTD/sodipodi-0.dtd"
   xmlns="http://www.w3.org/2000/svg"
   xmlns:svg="http://www.w3.org/2000/svg">
  <defs
     id="defs2" />
  <sodipodi:namedview
     id="namedview2"
     pagecolor="#ffffff"
     bordercolor="#666666"
     borderopacity="1.0"
     inkscape:showpageshadow="2"
     inkscape:pageopacity="0.0"
     inkscape:pagecheckerboard="0"
     inkscape:deskcolor="#d1d1d1"
     inkscape:zoom="1.4804688"
     inkscape:cx="288.08443"
     inkscape:cy="39.514512"
     inkscape:window-width="1920"
     inkscape:window-height="1009"
     inkscape:window-x="2392"
     inkscape:window-y="-8"
     inkscape:window-maximized="1"
     inkscape:current-layer="layer1" />
  <!--!Font Awesome Pro 6.7.2 by @fontawesome - https://fontawesome.com License - https://fontawesome.com/license (Commercial License) Copyright 2025 Fonticons, Inc.-->
  <g
     inkscape:groupmode="layer"
     id="layer1"
     inkscape:label="Grid"
     style="display:inline">
    <rect
       style="fill:#b3b3b3;fill-rule:evenodd;stroke-width:0.774597"
       id="rect2-4"
       width="575.49341"
       height="6.0791559"
       x="-0.33509234"
       y="340.47229" />
    <rect
       style="display:inline;fill:#b3b3b3;fill-rule:evenodd;stroke-width:0.774597"
       id="rect2-4-3"
       width="575.49341"
       height="6.0791559"
       x="0.30343008"
       y="160.65172" />
    <rect
       style="display:inline;fill:#b3b3b3;fill-rule:evenodd;stroke-width:0.850803"
       id="rect2-4-3-0"
       width="568.06329"
       height="7.4300795"
       x="4.3773088"
       y="0.53825855" />
    <rect
       style="display:inline;fill:#b3b3b3;fill-rule:evenodd;stroke-width:0.770038"
       id="rect2-4-3-0-1"
       width="568.73877"
       height="6.0791559"
       x="3.105541"
       y="506.67548" />
    <rect
       style="display:inline;fill:#b3b3b3;fill-rule:evenodd;stroke-width:0.730136"
       id="rect2-4-3-8"
       width="511.32455"
       height="6.0791559"
       x="-511.87595"
       y="188.25594"
       transform="rotate(-90)" />
    <rect
       style="display:inline;fill:#b3b3b3;fill-rule:evenodd;stroke-width:0.7311"
       id="rect2-4-3-8-4"
       width="512.67548"
       height="6.0791559"
       x="-511.77307"
       y="0.22163588"
       transform="rotate(-90)" />
    <rect
       style="display:inline;fill:#b3b3b3;fill-rule:evenodd;stroke-width:0.729654"
       id="rect2-4-3-8-4-6"
       width="510.64908"
       height="6.0791559"
       x="-511.30869"
       y="569.57257"
       transform="rotate(-90)" />
    <rect
       style="display:inline;fill:#b3b3b3;fill-rule:evenodd;stroke-width:0.7311"
       id="rect2-4-3-8-9"
       width="512.67548"
       height="6.0791559"
       x="-513.13196"
       y="392.314"
       transform="rotate(-90)" />
  </g>
  <path
     class="fa-secondary"
     opacity="0.4"
     d="m 266.51187,484.16224 25.83536,-9.30953 c 0.69631,-0.24181 1.41661,-0.24181 2.11292,0 l 25.83536,9.30953 V 472.2533 l -13.83008,-13.05752 c -0.96042,-0.90678 -1.53667,-2.35761 -1.53667,-3.8689 V 430.4511 c 0,-1.51129 0.57625,-2.96212 1.53667,-3.8689 0.96042,-0.90677 2.20897,-1.20902 3.36148,-0.78587 l 37.36042,13.45046 v -16.98687 c 0,-1.72286 -0.74432,-3.32483 -1.94485,-4.20137 L 306.8496,390.43221 c -1.20053,-0.87654 -1.94485,-2.4785 -1.94485,-4.20137 V 353.0732 c 0,-4.1107 -1.41662,-10.3372 -3.88971,-15.53603 -2.59315,-5.47086 -5.42638,-7.94937 -7.61135,-7.94937 -0.98443,0 -2.16095,0.51383 -3.55356,1.90422 -1.39261,1.39039 -2.76122,3.47596 -4.00977,6.04515 -2.5211,5.22906 -3.98574,11.45556 -3.98574,15.5058 v 33.15764 c 0,1.72287 -0.74434,3.32484 -1.94486,4.20138 l -38.34486,27.65656 c -1.20053,0.84631 -1.94485,2.47851 -1.94485,4.20137 v 16.98687 l 37.36042,-13.45046 c 1.15251,-0.42315 2.40106,-0.1209 3.36148,0.78587 0.96042,0.90678 1.53668,2.35761 1.53668,3.8689 v 24.87578 c 0,1.51129 -0.57626,2.96212 -1.53668,3.8689 l -13.83008,13.05752 z"
     id="path1"
     style="display:inline;opacity:1;fill:#999999;stroke-width:0.269395" />
  <path
     class="fa-primary"
     d="m 285.04802,323.93558 c 2.281,-2.29714 5.11425,-4.02002 8.35567,-4.02002 6.45884,0 11.30897,6.52877 14.21425,12.63436 3.04934,6.37763 4.9942,14.29678 4.9942,20.52328 v 30.37687 l 36.44801,26.20572 c 3.60159,2.56918 5.81056,7.40531 5.81056,12.60413 v 16.98687 c 0,6.43808 -4.87414,11.06262 -9.79631,9.30953 l -32.46226,-11.69736 v 16.04986 l 12.2934,11.60669 c 1.94485,1.81354 3.07334,4.68498 3.07334,7.73779 v 12.69481 c 0,5.01747 -3.2174,9.06772 -7.20316,9.06772 -0.6723,0 -1.34458,-0.1209 -1.96887,-0.36271 l -25.40316,-9.12818 -25.37915,9.12818 c -0.64829,0.24181 -1.32059,0.36271 -1.99288,0.36271 -3.98576,0 -7.20317,-4.05025 -7.20317,-9.06772 V 472.2533 c 0,-3.05281 1.1285,-5.92425 3.07335,-7.73779 l 12.2934,-11.60669 v -16.04986 l -32.46226,11.69736 c -4.92217,1.75309 -9.79631,-2.90167 -9.79631,-9.30953 v -16.98687 c 0,-5.19882 2.20897,-10.00472 5.81056,-12.60413 l 36.44801,-26.23594 v -30.37688 c 0,-6.25672 2.0169,-14.17587 5.09025,-20.5535 1.56068,-3.23415 3.48153,-6.28695 5.76253,-8.58411 z m 0.79234,13.60159 c -2.5211,5.22906 -3.98574,11.45556 -3.98574,15.5058 v 33.15764 c 0,1.72287 -0.74434,3.32484 -1.94486,4.20138 l -38.34486,27.65656 -1.89683,-4.20138 1.89683,4.20138 c -1.20053,0.84631 -1.94485,2.47851 -1.94485,4.20137 v 16.98687 l 37.36042,-13.45046 c 1.15251,-0.42315 2.40106,-0.1209 3.36148,0.78587 0.96042,0.90678 1.53668,2.35761 1.53668,3.8689 v 24.87578 c 0,1.51129 -0.57626,2.96212 -1.53668,3.8689 l -13.83008,13.05752 v 11.90894 l 25.83536,-9.30953 c 0.69631,-0.24181 1.41661,-0.24181 2.11292,0 l 25.83536,9.30953 V 472.2533 l -13.83008,-13.05752 c -0.96042,-0.90678 -1.53667,-2.35761 -1.53667,-3.8689 V 430.4511 c 0,-1.51129 0.57625,-2.96212 1.53667,-3.8689 0.96042,-0.90677 2.20897,-1.20902 3.36148,-0.78587 l 37.36042,13.45046 v -16.98687 c 0,-1.72286 -0.74432,-3.32483 -1.94485,-4.20137 L 306.8496,390.43221 c -1.20053,-0.87654 -1.94485,-2.4785 -1.94485,-4.20137 V 353.0732 c 0,-4.1107 -1.41662,-10.3372 -3.88971,-15.53603 -2.59315,-5.47086 -5.42638,-7.94937 -7.61135,-7.94937 -0.98443,0 -2.16095,0.51383 -3.55356,1.90422 -1.39261,1.39039 -2.76122,3.47596 -4.00977,6.04515 z"
     id="path2"
     style="display:inline;stroke-width:0.269395" />
</svg>
