<?xml version="1.0" encoding="UTF-8" standalone="no"?>
<svg
   viewBox="0 0 384 512"
   version="1.1"
   id="svg2"
   sodipodi:docname="location-dot-sharp-duotone-thin.svg"
   inkscape:version="1.3 (0e150ed6c4, 2023-07-21)"
   xmlns:inkscape="http://www.inkscape.org/namespaces/inkscape"
   xmlns:sodipodi="http://sodipodi.sourceforge.net/DTD/sodipodi-0.dtd"
   xmlns="http://www.w3.org/2000/svg"
   xmlns:svg="http://www.w3.org/2000/svg">
  <defs
     id="defs2" />
  <sodipodi:namedview
     id="namedview2"
     pagecolor="#ffffff"
     bordercolor="#666666"
     borderopacity="1.0"
     inkscape:showpageshadow="2"
     inkscape:pageopacity="0.0"
     inkscape:pagecheckerboard="0"
     inkscape:deskcolor="#d1d1d1"
     inkscape:zoom="1.5058594"
     inkscape:cx="192.24903"
     inkscape:cy="256"
     inkscape:window-width="1920"
     inkscape:window-height="1009"
     inkscape:window-x="2392"
     inkscape:window-y="-8"
     inkscape:window-maximized="1"
     inkscape:current-layer="svg2" />
  <!--!Font Awesome Pro 6.7.2 by @fontawesome - https://fontawesome.com License - https://fontawesome.com/license (Commercial License) Copyright 2025 Fonticons, Inc.-->
  <path
     class="fa-secondary"
     opacity=".4"
     d="M16 192c0 24.1 10.6 55.3 28.2 90c17.5 34.2 40.9 70 64.7 102.6c23.7 32.6 47.4 61.8 65.3 82.8c7 8.2 13 15.2 17.8 20.6c4.8-5.4 10.8-12.4 17.8-20.6c17.8-21 41.6-50.2 65.3-82.8c23.7-32.6 47.2-68.4 64.7-102.6c17.7-34.7 28.2-65.9 28.2-90c0-97.2-78.8-176-176-176S16 94.8 16 192zm256 0a80 80 0 1 1 -160 0 80 80 0 1 1 160 0z"
     id="path1"
     style="fill:#999999" />
  <path
     class="fa-primary"
     d="M368 192c0-97.2-78.8-176-176-176S16 94.8 16 192c0 24.1 10.6 55.3 28.2 90c17.5 34.2 40.9 70 64.7 102.6c23.7 32.6 47.4 61.8 65.3 82.8c7 8.2 13 15.2 17.8 20.6c4.8-5.4 10.8-12.4 17.8-20.6c17.8-21 41.6-50.2 65.3-82.8c23.7-32.6 47.2-68.4 64.7-102.6c17.7-34.7 28.2-65.9 28.2-90zm16 0c0 95.9-140.8 262.2-181.3 308c-6.8 7.7-10.7 12-10.7 12s-4-4.3-10.7-12C140.8 454.2 0 287.9 0 192C0 86 86 0 192 0S384 86 384 192zM192 112a80 80 0 1 1 0 160 80 80 0 1 1 0-160zm64 80a64 64 0 1 0 -128 0 64 64 0 1 0 128 0z"
     id="path2" />
</svg>
