<?xml version="1.0" encoding="UTF-8" standalone="no"?>
<svg
   viewBox="0 0 512 512"
   version="1.1"
   id="svg2"
   sodipodi:docname="magnifying-glass-minus-duotone-thin.svg"
   inkscape:version="1.3 (0e150ed6c4, 2023-07-21)"
   xmlns:inkscape="http://www.inkscape.org/namespaces/inkscape"
   xmlns:sodipodi="http://sodipodi.sourceforge.net/DTD/sodipodi-0.dtd"
   xmlns="http://www.w3.org/2000/svg"
   xmlns:svg="http://www.w3.org/2000/svg">
  <defs
     id="defs2" />
  <sodipodi:namedview
     id="namedview2"
     pagecolor="#ffffff"
     bordercolor="#666666"
     borderopacity="1.0"
     inkscape:showpageshadow="2"
     inkscape:pageopacity="0.0"
     inkscape:pagecheckerboard="0"
     inkscape:deskcolor="#d1d1d1"
     inkscape:zoom="1.5058594"
     inkscape:cx="256"
     inkscape:cy="256"
     inkscape:window-width="1920"
     inkscape:window-height="1009"
     inkscape:window-x="2392"
     inkscape:window-y="-8"
     inkscape:window-maximized="1"
     inkscape:current-layer="svg2" />
  <!--!Font Awesome Pro 6.7.2 by @fontawesome - https://fontawesome.com License - https://fontawesome.com/license (Commercial License) Copyright 2025 Fonticons, Inc.-->
  <path
     class="fa-secondary"
     opacity="0.4"
     d="M16 208a192 192 0 1 0 384 0A192 192 0 1 0 16 208zm88 0c0-4.4 3.6-8 8-8l192 0c4.4 0 8 3.6 8 8s-3.6 8-8 8l-192 0c-4.4 0-8-3.6-8-8z"
     id="path1"
     style="fill:#999999" />
  <path
     class="fa-primary"
     d="M208 16a192 192 0 1 1 0 384 192 192 0 1 1 0-384zm0 400c54.6 0 104.2-21 141.3-55.4l149 149c3.1 3.1 8.2 3.1 11.3 0s3.1-8.2 0-11.3l-149-149C395 312.2 416 262.6 416 208C416 93.1 322.9 0 208 0S0 93.1 0 208S93.1 416 208 416zM112 200c-4.4 0-8 3.6-8 8s3.6 8 8 8l192 0c4.4 0 8-3.6 8-8s-3.6-8-8-8l-192 0z"
     id="path2" />
</svg>
