<svg xmlns="http://www.w3.org/2000/svg" viewBox="0 0 448 512"><g style="" transform="matrix(1.055587, 0, 0, 1.089246, -2.017347, 9.595993)"><path class="fa-secondary" opacity=".4" d="M 132 190.852 C 132 174.232 145.926 160.749 163.091 160.749 L 163.091 230.988 C 163.091 242.088 172.354 251.056 183.818 251.056 L 308.183 251.056 C 319.648 251.056 328.911 242.088 328.911 230.988 L 328.911 161.502 C 334.611 162.756 339.922 165.515 344.068 169.592 L 392.324 216.313 C 398.154 221.957 401.457 229.608 401.457 237.573 L 401.457 391.534 C 401.457 408.153 387.531 421.637 370.366 421.637 L 163.091 421.637 C 145.926 421.637 132 408.153 132 391.534 L 132 190.852 Z M 209.728 336.346 C 209.728 378.83 257.228 405.382 295.229 384.14 C 312.865 374.282 323.729 356.063 323.729 336.346 C 323.729 293.863 276.228 267.311 238.228 288.552 C 220.592 298.411 209.728 316.63 209.728 336.346 Z" style=""/><path class="fa-primary" d="M 132 190.852 C 132 174.232 145.926 160.749 163.091 160.749 L 163.091 230.988 C 163.091 242.088 172.354 251.056 183.818 251.056 L 308.183 251.056 C 319.648 251.056 328.911 242.088 328.911 230.988 L 328.911 161.502 C 334.611 162.756 339.922 165.515 344.068 169.592 L 392.324 216.313 C 398.154 221.957 401.457 229.608 401.457 237.573 L 401.457 391.534 C 401.457 408.153 387.531 421.637 370.366 421.637 L 163.091 421.637 C 145.926 421.637 132 408.153 132 391.534 L 132 190.852 Z M 173.455 160.749 L 318.547 160.749 L 318.547 230.988 C 318.547 236.507 313.883 241.022 308.183 241.022 L 183.818 241.022 C 178.118 241.022 173.455 236.507 173.455 230.988 L 173.455 160.749 Z M 121.636 190.852 L 121.636 391.534 C 121.636 413.672 140.226 431.671 163.091 431.671 L 370.366 431.671 C 393.231 431.671 411.821 413.672 411.821 391.534 L 411.821 237.573 C 411.821 226.912 407.481 216.689 399.708 209.164 L 351.387 162.442 C 343.614 154.917 333.056 150.715 322.045 150.715 L 163.091 150.715 C 140.226 150.715 121.636 168.714 121.636 190.852 Z M 313.365 336.346 C 313.365 371.106 274.501 392.83 243.41 375.451 C 228.98 367.385 220.092 352.478 220.092 336.346 C 220.092 301.587 258.956 279.863 290.047 297.242 C 304.476 305.308 313.365 320.215 313.365 336.346 Z M 266.728 281.159 C 222.849 281.159 195.425 327.148 217.364 363.94 C 227.547 381.015 246.364 391.534 266.728 391.534 C 310.607 391.534 338.032 345.544 316.092 308.753 C 305.91 291.677 287.093 281.159 266.728 281.159 Z" style=""/><path class="fa-secondary" opacity=".4" d="M 28.551 169.909 C 21.305 176.971 21.305 188.439 28.551 195.501 L 93.302 258.604 C 117.649 282.331 150.691 295.664 185.124 295.664 C 80.738 332.055 130.748 139.377 153.892 160.001 C 205.942 153.685 293.284 172.481 278.905 151.672 L 278.164 96.807 C 278.164 86.807 269.874 78.729 259.614 78.729 C 249.353 78.729 241.064 86.807 241.064 96.807 L 241.064 128.443 L 241.064 155.56 C 241.064 158.046 238.978 160.08 236.426 160.08 C 233.876 160.08 231.789 158.046 231.789 155.56 L 231.789 128.443 L 231.789 96.807 L 231.789 92.287 L 231.789 60.651 C 231.789 50.651 223.499 42.573 213.239 42.573 C 202.978 42.573 194.69 50.651 194.69 60.651 L 194.69 155.56 C 194.69 158.046 192.602 160.08 190.052 160.08 C 187.501 160.08 185.415 158.046 185.415 155.56 L 185.415 60.651 L 185.415 56.131 L 185.415 42.573 C 185.415 32.574 177.125 24.495 166.865 24.495 C 156.604 24.495 148.315 32.574 148.315 42.573 L 148.315 56.131 L 148.315 155.56 C 148.315 158.046 146.227 160.08 143.677 160.08 C 141.126 160.08 139.04 158.046 139.04 155.56 L 139.04 60.651 C 139.04 50.651 130.75 42.573 120.49 42.573 C 110.229 42.573 101.94 50.651 101.94 60.651 L 101.94 204.935 C 101.94 206.743 100.838 208.438 99.099 209.115 C 97.36 209.793 95.39 209.454 94.056 208.155 L 54.753 169.909 C 47.507 162.847 35.74 162.847 28.494 169.909 L 28.551 169.909 Z" style=""/><path d="M 148.315 42.573 L 148.315 56.131 C 148.315 56.131 148.315 56.131 148.315 56.131 L 148.315 155.56 C 148.315 158.046 146.227 160.08 143.677 160.08 C 141.126 160.08 139.04 158.046 139.04 155.56 L 139.04 60.651 C 139.04 60.651 139.04 60.651 139.04 60.651 C 139.04 50.651 130.75 42.573 120.49 42.573 C 110.229 42.573 101.94 50.651 101.94 60.651 L 101.94 204.935 C 101.94 206.743 100.838 208.438 99.099 209.115 C 97.36 209.793 95.39 209.454 94.056 208.155 L 54.753 169.909 C 47.507 162.847 35.74 162.847 28.494 169.909 C 21.248 176.971 21.248 188.439 28.494 195.501 L 93.302 258.604 C 117.649 282.331 150.691 295.664 185.124 295.664 L 190.052 295.664 C 238.687 295.664 278.164 257.191 278.164 209.793 L 278.164 96.807 C 278.164 86.807 269.874 78.729 259.614 78.729 C 249.353 78.729 241.064 86.807 241.064 96.807 L 241.064 128.443 L 241.064 155.56 C 241.064 158.046 238.978 160.08 236.426 160.08 C 233.876 160.08 231.789 158.046 231.789 155.56 L 231.789 128.443 L 231.789 96.807 L 231.789 92.287 L 231.789 60.651 C 231.789 50.651 223.499 42.573 213.239 42.573 C 202.978 42.573 194.69 50.651 194.69 60.651 L 194.69 155.56 C 194.69 158.046 192.602 160.08 190.052 160.08 C 187.501 160.08 185.415 158.046 185.415 155.56 L 185.415 60.651 L 185.415 56.131 L 185.415 42.573 C 185.415 32.574 177.125 24.495 166.865 24.495 C 156.604 24.495 148.315 32.574 148.315 42.573 Z M 166.865 15.456 C 181.531 15.456 193.53 26.472 194.631 40.483 C 199.558 36.189 206.051 33.534 213.239 33.534 C 228.601 33.534 241.064 45.68 241.064 60.651 L 241.064 76.582 C 245.992 72.289 252.484 69.689 259.614 69.689 C 274.976 69.689 287.439 81.836 287.439 96.807 L 287.439 209.793 C 287.439 262.219 243.846 304.702 190.052 304.702 L 185.124 304.702 C 148.198 304.702 112.838 290.41 86.752 264.987 L 22.001 201.827 C 11.161 191.263 11.161 174.09 22.001 163.469 C 32.841 152.848 50.464 152.905 61.361 163.469 L 92.665 194.032 L 92.665 60.651 C 92.665 45.68 105.128 33.534 120.49 33.534 C 127.677 33.534 134.17 36.189 139.098 40.483 C 140.199 26.472 152.198 15.456 166.865 15.456 Z" style="" class="fa-primary"/></g></svg>