<?xml version="1.0" encoding="UTF-8" standalone="no"?>
<svg
   viewBox="0 0 448 512"
   version="1.1"
   id="svg2"
   sodipodi:docname="trash-undo-sharp-duotone-thin.svg"
   inkscape:version="1.3 (0e150ed6c4, 2023-07-21)"
   xmlns:inkscape="http://www.inkscape.org/namespaces/inkscape"
   xmlns:sodipodi="http://sodipodi.sourceforge.net/DTD/sodipodi-0.dtd"
   xmlns="http://www.w3.org/2000/svg"
   xmlns:svg="http://www.w3.org/2000/svg">
  <defs
     id="defs2" />
  <sodipodi:namedview
     id="namedview2"
     pagecolor="#ffffff"
     bordercolor="#666666"
     borderopacity="1.0"
     inkscape:showpageshadow="2"
     inkscape:pageopacity="0.0"
     inkscape:pagecheckerboard="0"
     inkscape:deskcolor="#d1d1d1"
     inkscape:zoom="1.5058594"
     inkscape:cx="224.12451"
     inkscape:cy="256"
     inkscape:window-width="1920"
     inkscape:window-height="1009"
     inkscape:window-x="2392"
     inkscape:window-y="-8"
     inkscape:window-maximized="1"
     inkscape:current-layer="svg2" />
  <!--!Font Awesome Pro 6.7.2 by @fontawesome - https://fontawesome.com License - https://fontawesome.com/license (Commercial License) Copyright 2025 Fonticons, Inc.-->
  <path
     class="fa-secondary"
     opacity=".4"
     d="M40 112L79.2 496l289.5 0L408 112 40 112zm68.1 160l6.5-5.9 88-80 5.9-5.4 10.8 11.8-5.9 5.4L140.7 264 248 264c39.8 0 72 32.2 72 72l0 40 0 8-16 0 0-8 0-40c0-30.9-25.1-56-56-56l-107.3 0 72.7 66.1 5.9 5.4-10.8 11.8-5.9-5.4-88-80-6.5-5.9zM134.4 64l179.1 0-30-48L164.4 16l-30 48z"
     id="path1"
     style="fill:#999999" />
  <path
     class="fa-primary"
     d="M155.6 0L160 0 288 0l4.4 0 2.4 3.8L332.4 64 448 64l0 16L0 80 0 64l115.6 0L153.2 3.8 155.6 0zm128 16L164.4 16l-30 48 179.1 0-30-48zM24 112.8L24 112 40 112 79.2 496l289.5 0L408 112l16.1 0-.1 .8-40 392-.7 7.2-7.2 0L72 512l-7.2 0-.7-7.2-40-392zm195.3 79.7l-5.9 5.4L140.7 264 248 264c39.8 0 72 32.2 72 72l0 40 0 8-16 0 0-8 0-40c0-30.9-25.1-56-56-56l-107.3 0 72.7 66.1 5.9 5.4-10.8 11.8-5.9-5.4-88-80-6.5-5.9 6.5-5.9 88-80 5.9-5.4 10.8 11.8z"
     id="path2" />
</svg>
